<svg width="36" height="30" viewBox="0 0 36 30" fill="none" xmlns="http://www.w3.org/2000/svg">
<path d="M10.507 14.0398H13.4178V16.4542H10.507V14.0398ZM10.507 18.8685H13.4178V21.2829H10.507V18.8685ZM16.3286 14.0398H19.2394V16.4542H16.3286V14.0398ZM16.3286 18.8685H19.2394V21.2829H16.3286V18.8685ZM22.1502 14.0398H25.061V16.4542H22.1502V14.0398ZM22.1502 18.8685H25.061V21.2829H22.1502V18.8685Z" fill="black"/>
<path d="M7.59624 27.3187H27.9718C29.5771 27.3187 30.8826 26.2359 30.8826 24.9044V8.00396C30.8826 6.67245 29.5771 5.58962 27.9718 5.58962H25.061V3.17528H22.1502V5.58962H13.4178V3.17528H10.507V5.58962H7.59624C5.99093 5.58962 4.68544 6.67245 4.68544 8.00396V24.9044C4.68544 26.2359 5.99093 27.3187 7.59624 27.3187ZM27.9718 10.4183L27.9733 24.9044H7.59624V10.4183H27.9718Z" fill="black"/>
</svg>
