<svg width="36" height="30" viewBox="0 0 36 30" fill="none" xmlns="http://www.w3.org/2000/svg">
<g clip-path="url(#clip0_11_37)">
<path d="M34.4277 24.8769H1.35272V26.0697H34.4277V24.8769Z" fill="#1F4AA8"/>
<path d="M33.9258 6.0868C31.5237 4.92558 28.7943 5.54242 26.9279 6.26429L21.3643 8.41617L11.7956 4.42432L6.09709 4.62739L13.9986 11.2716L8.96297 13.2557L3.72382 11.6019L0.216003 12.9586L3.3861 16.2237C3.05118 16.5551 2.74768 17.0217 3.02321 17.5118C3.38308 18.1519 4.44672 18.4745 6.19143 18.4744C6.54921 18.4744 6.93569 18.4609 7.35049 18.4337C9.26567 18.3082 11.3421 17.9027 12.6404 17.4006L32.5282 9.70842C34.246 9.04399 35.1016 8.34634 35.144 7.57545C35.166 7.17563 34.9725 6.59266 33.9258 6.0868ZM31.9204 8.62735L12.0326 16.3196C10.9265 16.7474 9.11044 17.1059 7.40607 17.2328C5.66403 17.3625 4.73261 17.1996 4.42213 17.0613C4.48605 16.9888 4.60541 16.8747 4.82565 16.7139L5.34219 16.3368L2.4871 13.3962L3.78033 12.8959L9.02509 14.5517L16.4432 11.6288L9.39675 5.70363L11.4834 5.62926L21.3404 9.74128L27.5355 7.34524C29.798 6.47016 31.7043 6.39359 33.2016 7.11724L33.2017 7.1173C33.5789 7.29962 33.7108 7.45867 33.7074 7.52105C33.7072 7.52535 33.664 7.95308 31.9204 8.62735Z" fill="#1F4AA8"/>
</g>
<defs>
<clipPath id="clip0_11_37">
<rect width="34.9296" height="28.9721" fill="white" transform="translate(0.216003 0.760941)"/>
</clipPath>
</defs>
</svg>
