<svg width="36" height="30" viewBox="0 0 36 30" fill="none" xmlns="http://www.w3.org/2000/svg">
<g clip-path="url(#clip0_11_57)">
<path d="M1.63335 24.8769H34.7083V26.0697H1.63335V24.8769Z" fill="#1F4AA8"/>
<path d="M2.76233 17.9688C3.30944 15.7078 5.67724 14.4238 7.56694 13.745L13.2001 11.7215L15.9512 3.13544L19.9164 -0.265192L20.6638 9.04688L25.7953 7.23956L27.7812 2.89144L31.3328 1.61556L32.1733 5.74946C32.6944 5.76163 33.3166 5.88303 33.5758 6.37926C33.9141 7.02733 33.499 7.90134 32.341 8.98374C32.1035 9.20572 31.8348 9.43651 31.535 9.67581C30.1507 10.7807 28.4069 11.7998 27.0924 12.2721L6.95587 19.5054C5.2166 20.1302 4.01957 20.198 3.29623 19.7126C2.92107 19.4609 2.52377 18.954 2.76233 17.9688ZM6.38441 18.4108L26.5209 11.1775C27.6409 10.7752 29.1695 9.88644 30.4152 8.91325C31.6883 7.91855 32.1597 7.23259 32.241 6.94817C32.1331 6.93966 31.9511 6.93802 31.6599 6.96795L30.977 7.03814L30.2201 3.31505L28.9106 3.78537L26.9228 8.13823L19.3635 10.8006L18.6969 2.49628L17.2449 3.74152L14.411 12.5861L8.13849 14.8394C5.84767 15.6623 4.51341 16.7942 4.17223 18.2034L4.17224 18.2035C4.08625 18.5586 4.14217 18.7459 4.20071 18.7852C4.20468 18.788 4.61909 19.045 6.38441 18.4108Z" fill="#1F4AA8"/>
</g>
<defs>
<clipPath id="clip0_11_57">
<rect width="34.9296" height="28.9721" fill="white" transform="matrix(-1 0 0 1 35.845 0.760941)"/>
</clipPath>
</defs>
</svg>
