<svg width="27" height="27" fill="none" xmlns="http://www.w3.org/2000/svg"><g clip-path="url(#clip0)"><path d="M13.507 26.88c7.235 0 13.1-5.865 13.1-13.1 0-7.236-5.865-13.101-13.1-13.101C6.27.679.406 6.544.406 13.779c0 7.236 5.865 13.102 13.1 13.102z" fill="#3B5998"/><path d="M16.798 14.294H14.46v8.564h-3.542v-8.564H9.235v-3.01h1.684V9.337c0-1.393.662-3.574 3.574-3.574l2.623.01v2.922h-1.903c-.312 0-.752.156-.752.82v1.772h2.647l-.309 3.007z" fill="#fff"/></g><defs><clipPath id="clip0"><path fill="#fff" transform="translate(.402 .68)" d="M0 0h26.202v26.202H0z"/></clipPath></defs></svg>