<svg width="28" height="28" fill="none" xmlns="http://www.w3.org/2000/svg"><g clip-path="url(#clip0)"><path d="M2.268 2.298C.111 4.538.553 6.92.553 14.15c0 6.004-1.048 12.024 4.435 13.44 1.712.441 16.883.441 18.593-.001 2.282-.59 4.14-2.441 4.394-5.67.035-.45.035-15.08-.001-15.54-.27-3.439-2.387-5.421-5.177-5.823-.64-.092-.767-.12-4.047-.125C7.114.436 4.564-.082 2.268 2.298z" fill="url(#paint0_linear)"/><path d="M14.272 4.023c-4.153 0-8.096-.369-9.603 3.497-.622 1.597-.532 3.67-.532 6.64 0 2.605-.083 5.053.532 6.637 1.503 3.869 5.479 3.498 9.6 3.498 3.978 0 8.078.414 9.602-3.498.624-1.612.532-3.655.532-6.638 0-3.96.219-6.516-1.702-8.435-1.944-1.944-4.573-1.7-8.434-1.7h.005zm-.908 1.827c8.662-.014 9.765-.977 9.157 12.402-.217 4.731-3.82 4.212-8.248 4.212-8.075 0-8.307-.231-8.307-8.31 0-8.171.64-8.3 7.398-8.306v.002zm6.318 1.682a1.216 1.216 0 100 2.432 1.216 1.216 0 000-2.432zm-5.41 1.422a5.205 5.205 0 000 10.41 5.203 5.203 0 005.203-5.205 5.204 5.204 0 00-5.203-5.205zm0 1.827c4.466 0 4.472 6.757 0 6.757-4.465 0-4.472-6.757 0-6.757z" fill="#fff"/></g><defs><linearGradient id="paint0_linear" x1="2.321" y1="26.127" x2="27.832" y2="4.047" gradientUnits="userSpaceOnUse"><stop stop-color="#FD5"/><stop offset=".5" stop-color="#FF543E"/><stop offset="1" stop-color="#C837AB"/></linearGradient><clipPath id="clip0"><path fill="#fff" transform="translate(.55 .432)" d="M0 0h27.45v27.45H0z"/></clipPath></defs></svg>