<svg width="18" height="21" fill="none" xmlns="http://www.w3.org/2000/svg"><path d="M15.102 1.77C14.142.682 12.407.217 10.187.217H3.743a.922.922 0 00-.912.771L.148 17.872a.55.55 0 00.546.634h3.978l1-6.288-.032.198a.918.918 0 01.91-.771h1.89c3.714 0 6.62-1.497 7.47-5.826.026-.128.066-.375.066-.375.242-1.602-.001-2.688-.874-3.675z" fill="#03A9F4"/><path d="M16.984 6.265c-.923 4.262-3.869 6.518-8.544 6.518H6.746L5.48 20.79h2.75a.805.805 0 00.796-.676l.033-.17.632-3.974.041-.219c.062-.39.4-.676.796-.676h.503c3.249 0 5.792-1.309 6.535-5.095.299-1.52.155-2.794-.582-3.715z" fill="#03A9F4"/></svg>