<svg width="54" height="53" fill="none" xmlns="http://www.w3.org/2000/svg"><path d="M33.102 18.77c-.96-1.087-2.695-1.552-4.915-1.552h-6.445a.922.922 0 00-.911.771l-2.683 16.883a.55.55 0 00.546.633h3.978l1-6.287-.032.198a.918.918 0 01.91-.771h1.89c3.714 0 6.62-1.497 7.47-5.826.026-.128.066-.375.066-.375.242-1.602-.001-2.688-.874-3.675z" fill="#03A9F4"/><path d="M34.984 23.265c-.923 4.262-3.869 6.517-8.544 6.517h-1.694L23.48 37.79h2.748a.805.805 0 00.797-.676l.033-.17.632-3.974.041-.219c.062-.39.4-.676.796-.676h.503c3.249 0 5.792-1.309 6.535-5.095.298-1.52.154-2.794-.582-3.715z" fill="#03A9F4"/><circle opacity=".1" cx="26.926" cy="26.36" r="26.286" fill="#03A9F4"/></svg>