<svg width="22" height="11" fill="none" xmlns="http://www.w3.org/2000/svg"><path d="M3.402 5.755V8.62c0 .62.068 1.004.203 1.154.184.213.462.319.835.319h.377v.268H.602v-.268h.37c.416 0 .713-.136.892-.406.097-.15.145-.506.145-1.067V2.265c0-.619-.065-1.003-.195-1.153-.189-.213-.47-.32-.842-.32h-.37V.525h3.606c.88 0 1.574.092 2.082.276a2.84 2.84 0 011.284.914c.348.43.522.94.522 1.53 0 .804-.266 1.456-.798 1.96-.527.502-1.274.754-2.242.754-.237 0-.493-.017-.769-.05-.275-.035-.57-.086-.885-.153zm0-.414c.257.049.484.085.682.11.199.023.368.035.508.035.503 0 .936-.193 1.299-.58.367-.392.551-.897.551-1.516a2.7 2.7 0 00-.261-1.183 1.779 1.779 0 00-.74-.82 2.141 2.141 0 00-1.088-.275c-.247 0-.564.046-.95.138v4.09zm11.526 5.02l-3.802-8.277v6.573c0 .604.066.981.196 1.131.18.203.462.305.849.305h.348v.268H9.095v-.268h.348c.416 0 .711-.126.885-.377.107-.155.16-.508.16-1.06V2.23c0-.435-.048-.75-.145-.943-.068-.14-.194-.256-.377-.348-.18-.097-.47-.145-.87-.145v-.27h2.785l3.569 7.697L18.961.524h2.786v.269h-.341c-.42 0-.718.125-.892.377-.107.155-.16.508-.16 1.06v6.427c0 .604.068.981.203 1.131.18.203.462.305.849.305h.34v.268h-4.178v-.268h.348c.421 0 .716-.126.886-.377.106-.155.16-.508.16-1.06V2.085l-3.795 8.277h-.24z" fill="#DA251C"/></svg>