<svg width="27" height="27" fill="none" xmlns="http://www.w3.org/2000/svg"><g clip-path="url(#clip0)"><path d="M13.1 26.881c7.236 0 13.102-5.865 13.102-13.1C26.202 6.544 20.336.678 13.1.678 5.865.68 0 6.545 0 13.78c0 7.236 5.865 13.101 13.1 13.101z" fill="#4D76A1"/><path fill-rule="evenodd" clip-rule="evenodd" d="M12.608 19.527h1.029s.31-.034.469-.205c.146-.157.141-.452.141-.452s-.02-1.38.62-1.583c.632-.2 1.442 1.334 2.301 1.923.65.447 1.144.349 1.144.349l2.297-.032s1.202-.074.632-1.02c-.047-.076-.332-.698-1.708-1.976-1.44-1.337-1.248-1.12.488-3.433 1.056-1.409 1.479-2.268 1.347-2.637-.126-.35-.903-.258-.903-.258l-2.587.016s-.192-.026-.334.06c-.139.083-.228.277-.228.277s-.41 1.09-.956 2.017c-1.151 1.956-1.612 2.059-1.8 1.937-.438-.283-.329-1.137-.329-1.743 0-1.896.288-2.686-.56-2.89-.28-.069-.488-.113-1.207-.12-.923-.01-1.704.002-2.146.219-.294.144-.521.465-.383.483.17.023.558.105.763.384.265.361.256 1.17.256 1.17s.152 2.232-.356 2.51c-.348.19-.827-.199-1.853-1.973-.527-.91-.924-1.914-.924-1.914s-.076-.188-.213-.288a1.072 1.072 0 00-.398-.16l-2.458.016s-.369.01-.504.17c-.12.143-.01.438-.01.438s1.925 4.503 4.104 6.771c1.998 2.08 4.266 1.944 4.266 1.944z" fill="#fff"/></g><defs><clipPath id="clip0"><path fill="#fff" transform="translate(0 .68)" d="M0 0h26.202v26.202H0z"/></clipPath></defs></svg>