<svg xmlns="http://www.w3.org/2000/svg" width="32" height="32" viewBox="0 0 32 32"><path style="line-height:normal;text-indent:0;text-align:start;text-decoration-line:none;text-decoration-style:solid;text-decoration-color:#000;text-transform:none;block-progression:tb;white-space:normal;isolation:auto;mix-blend-mode:normal;solid-color:#000;solid-opacity:1" d="M 7.5 1 A 0.50005003 0.50005003 0 0 0 7 1.5 L 7 30.5 A 0.50005003 0.50005003 0 0 0 7.5 31 L 24.5 31 A 0.50005003 0.50005003 0 0 0 25 30.5 L 25 1.5 A 0.50005003 0.50005003 0 0 0 24.5 1 L 7.5 1 z M 8 2 L 24 2 L 24 30 L 8 30 L 8 2 z M 13.396484 3 A 0.50005012 0.50005012 0 0 0 13.447266 4 L 18.552734 4 A 0.50005012 0.50005012 0 1 0 18.552734 3 L 13.447266 3 A 0.50005012 0.50005012 0 0 0 13.396484 3 z M 9.5 5 A 0.50005 0.50005 0 0 0 9 5.5 L 9 25.5 A 0.50005 0.50005 0 0 0 9.5 26 L 11.398438 26 L 20.601562 26 L 22.5 26 A 0.50005 0.50005 0 0 0 23 25.5 L 23 5.5 A 0.50005 0.50005 0 0 0 22.5 5 L 20.601562 5 L 11.398438 5 L 9.5 5 z M 10 6 L 11.398438 6 L 20.601562 6 L 22 6 L 22 25 L 20.601562 25 L 11.398438 25 L 10 25 L 10 6 z M 16 27 C 15.453619 27 14.999995 27.4536 15 28 C 14.999886 28.5465 15.453544 29.0001 16 29 C 16.546463 29.0001 17.000114 28.5465 17 28 C 17.000005 27.4536 16.546389 27 16 27 z " color="#000" enable-background="accumulate" font-family="sans-serif" font-weight="400" overflow="visible"/></svg>