<svg xmlns="http://www.w3.org/2000/svg" width="100" height="100" id="notification"><path d="m69.8 20.5 1-2.9c.4-1-.1-2.2-1.2-2.5-1-.4-2.2.2-2.5 1.2L66 19.1C53.1 15.6 39.4 22.4 34.7 35l-6.5 17.8-12 5.5c-1.6.7-1.5 3 .2 3.6L38 69.8c-.9 5.1 2 10.2 7 12 5 1.8 10.6-.3 13.2-4.7L80 84.9c1 .4 2.2-.1 2.6-1.2.2-.6.1-1.2-.2-1.7l-5.5-11.7 6.5-17.8c4.7-12.6-1.4-26.5-13.6-32zM46.5 78.1c-3-1.1-4.8-3.9-4.6-6.9l12.6 4.5c-1.8 2.4-5.1 3.4-8 2.4zm33.2-26.9-6.8 18.5c-.2.5-.2 1 .1 1.5l3.9 8.3L58 72.8l-16.9-6.1-18.9-6.8 8.4-3.9c.5-.2.8-.6 1-1.1l6.8-18.5c4.1-11.2 16.7-17 28.1-13C77.9 27.5 83.8 40 79.7 51.2z"></path><path fill="#00F" d="M804-790V894H-980V-790H804m8-8H-988V902H812V-798z"></path></svg>