<svg xmlns="http://www.w3.org/2000/svg" width="26" height="26"><g transform="translate(0 -1026.362)" fill-rule="evenodd"><circle cx="13" cy="1039.362" r="13" fill="#239fdb"/><path fill="#0b5ecd" style="line-height:normal;text-indent:0;text-align:start;text-decoration-line:none;text-decoration-style:solid;text-decoration-color:#000;text-transform:none;block-progression:tb;isolation:auto;mix-blend-mode:normal" d="M17.756 1051.458a13 13 0 001.14-.51 13 13 0 001.127-.647 13 13 0 001.057-.755 13 13 0 00.977-.858 13 13 0 00.886-.951 13 13 0 00.618-.814L16 1039.362l-5.3-5-.7.66 4.467 4.467-4.467 4.213 7.756 7.756z" color="#000" font-family="sans-serif" font-weight="400"/><path fill="#fff" style="line-height:normal;text-indent:0;text-align:start;text-decoration-line:none;text-decoration-style:solid;text-decoration-color:#000;text-transform:none;block-progression:tb;isolation:auto;mix-blend-mode:normal" d="M16 1039.364l-5.301-5-.7.66 4.6 4.34-4.6 4.34.7.66 5.3-5z" color="#000" font-family="sans-serif" font-weight="400" overflow="visible"/></g></svg>