<svg xmlns="http://www.w3.org/2000/svg" width="26" height="26"><g transform="translate(0 -1026.362)"><circle cx="13" cy="1039.362" r="13" fill="#239fdb"/><path fill="#0b5ecd" fill-rule="evenodd" style="line-height:normal;text-indent:0;text-align:start;text-decoration-line:none;text-decoration-style:solid;text-decoration-color:#000;text-transform:none;block-progression:tb;isolation:auto;mix-blend-mode:normal" d="M20.557 1049.919a13 13 0 00.523-.373 13 13 0 00.977-.858 13 13 0 00.886-.951 13 13 0 00.786-1.035 13 13 0 00.68-1.108 13 13 0 00.566-1.17 13 13 0 00.115-.312l-9.09-9.09-.7-.66-5.3 5 10.557 10.557z" color="#000" font-family="sans-serif" font-weight="400"/><path fill="#fff" fill-rule="evenodd" style="line-height:normal;text-indent:0;text-align:start;text-decoration-line:none;text-decoration-style:solid;text-decoration-color:#000;text-transform:none;block-progression:tb;isolation:auto;mix-blend-mode:normal" d="M10 1039.364l5.3 5 .7-.66-4.6-4.34 4.6-4.34-.7-.66-5.3 5z" color="#000" font-family="sans-serif" font-weight="400" overflow="visible"/></g></svg>