<?xml version="1.0" encoding="utf-8"?><svg viewBox="0 0 288 288" xmlns="http://www.w3.org/2000/svg" xmlns:xlink="http://www.w3.org/1999/xlink"><style>:root>svg{display:none}:root>svg:target{display:block}</style><svg xmlns:svgjs="http://svgjs.com/svgjs" viewBox="0 0 288 288" id="facebook" xmlns="http://www.w3.org/2000/svg"><svg data-name="Layer 1" viewBox="0 0 24 24" width="288" height="288"><path d="M20.9 2H3.1A1.1 1.1 0 002 3.1v17.8A1.1 1.1 0 003.1 22h9.58v-7.75h-2.6v-3h2.6V9a3.64 3.64 0 013.88-4 20.26 20.26 0 012.33.12v2.7H17.3c-1.26 0-1.5.6-1.5 1.47v1.93h3l-.39 3H15.8V22h5.1a1.1 1.1 0 001.1-1.1V3.1A1.1 1.1 0 0020.9 2z" fill="#fff" class="acolor000 asvgShape"/></svg></svg><svg fill="none" viewBox="0 0 42 50" id="logo" xmlns="http://www.w3.org/2000/svg"><path d="M39.846 32.484c.183.076.365.114.547.114.291 0 .546-.076.728-.267.182-.19.328-.457.401-.8.073-.343.146-.763.146-1.22V15.136c0-.457-.037-.915-.146-1.372a5.33 5.33 0 00-.4-1.297c-.183-.419-.438-.8-.73-1.143a5.063 5.063 0 00-1.055-.915l-1.13-.687c-.4-.267-.764-.38-1.056-.38-.291 0-.546.075-.728.266-.182.19-.328.457-.4.8a5.854 5.854 0 00-.147 1.22v15.213c0 .458.037.915.146 1.373.073.457.219.877.4 1.296.183.42.438.8.73 1.144.254.305.546.572.873.8l-1.82-1.067L10.09 42.549l2.258 1.335 5.135-2.364 5.464 3.24-4.007 3.05 2.331 1.373 20.397-15.632-1.822-1.067zM24.55 43.426l-4.99-2.974 16.5-7.701 1.82 1.067-13.33 9.608zm14.788-13.573l-1.13-.686a1.173 1.173 0 01-.51-.61 1.72 1.72 0 01-.145-.724V12.582c0-.229.036-.42.146-.572.109-.114.255-.114.51.038l1.129.686c.218.153.4.344.51.572.109.267.145.496.145.725v15.212c0 .229-.036.42-.145.572-.146.19-.292.153-.51.038z" fill="#76FF6A"/><path d="M33.399 28.404c.328 0 .546-.076.765-.267.182-.19.328-.457.437-.8.11-.343.145-.763.145-1.22V10.752c0-.458-.036-.915-.145-1.373-.11-.457-.219-.877-.437-1.296-.182-.42-.437-.8-.765-1.144-.328-.343-.692-.686-1.13-.915l-1.201-.686a2.932 2.932 0 00-1.13-.42c-.327 0-.582.077-.764.267-.182.19-.328.458-.437.8-.11.344-.146.763-.146 1.22v15.328c0 .457.037.915.146 1.372.11.458.218.915.437 1.297.182.42.437.8.765 1.182.218.228.473.457.728.648l-.4-.229-8.341 4.957-.073-5.529 3.715-2.211 2.404-17.996V3.546L22.217 0v2.478l3.934 2.402-2.84 17.767-6.193 3.66.037-.038 1.202-.8c.437-.305.837-.649 1.129-1.068.328-.42.582-.839.765-1.296.182-.458.327-.953.437-1.487.109-.534.145-1.03.145-1.563V2.82c0-.495-.036-.953-.145-1.372-.11-.381-.219-.686-.437-.915-.183-.229-.438-.305-.765-.305-.328 0-.692.152-1.13.457l-1.201.8c-.437.306-.838.65-1.13 1.068-.327.42-.582.84-.764 1.297a8.767 8.767 0 00-.437 1.487 7.57 7.57 0 00-.146 1.563v17.271c0 .534.036.953.146 1.373.109.381.218.686.437.915.182.229.437.305.765.305.218 0 .51-.076.8-.267L9.87 30.654l1.166-.8a5.117 5.117 0 001.129-1.068c.328-.42.546-.84.765-1.297.182-.457.328-.953.437-1.487.073-.533.145-1.029.145-1.563V7.244c0-.496-.036-.953-.145-1.372-.073-.382-.219-.687-.437-.916-.182-.228-.437-.305-.765-.305-.291 0-.692.153-1.13.458l-1.165.8a5.118 5.118 0 00-1.129 1.068c-.327.42-.546.839-.765 1.296a6.327 6.327 0 00-.4 1.487c-.073.534-.146 1.03-.146 1.564v17.233c0 .534.037.953.146 1.373.073.38.218.686.4.915.183.228.438.305.765.305.219 0 .437-.077.729-.23l-7.212 4.233c.037-.038.11-.076.146-.115l1.093-.762a5.115 5.115 0 001.129-1.068c.291-.419.546-.838.764-1.334.183-.458.328-.991.438-1.487.072-.534.145-1.068.145-1.563v-9.265c0-.534-.036-.991-.145-1.373-.11-.419-.219-.724-.438-.915-.182-.228-.437-.305-.764-.305-.292 0-.692.153-1.13.458l-1.784 1.22v-5.185l3.97-2.707V8.007L0 11.896v10.637l3.533-2.402c.255-.19.437-.19.546-.076.11.152.146.343.146.686v9.265c0 .305-.036.572-.146.838-.109.267-.291.496-.546.687l-1.093.762c-.255.19-.437.19-.546.038-.11-.152-.146-.38-.146-.648V24.86L0 26.04v6.825c0 .534.036.991.146 1.373.073.42.218.724.4.915.182.229.437.305.765.305.219 0 .51-.076.801-.267L0 36.487l2.295 1.335 16.499-9.799.218 5.414-12.019 7.13L9.288 41.9l23.273-13.84c.292.267.583.343.838.343zm-24.075-.419c-.11-.152-.146-.343-.146-.648V10.104c0-.267.037-.572.146-.84.11-.266.291-.495.546-.685l1.166-.801c.255-.153.4-.19.51-.038.109.152.145.343.145.648V25.62c0 .267-.036.572-.145.839-.11.267-.292.496-.51.648l-1.166.8c-.255.191-.437.23-.546.077zm7.284-4.346c-.109-.153-.145-.344-.145-.649V5.72c0-.267.036-.572.145-.839.11-.267.292-.495.547-.686l1.202-.8c.255-.153.437-.191.546-.039.11.153.146.343.146.648v17.272c0 .267-.037.572-.146.838-.11.267-.291.496-.546.649l-1.202.8c-.255.19-.437.23-.547.077zm14.46 1.258a1.244 1.244 0 01-.546-.61 1.718 1.718 0 01-.146-.725V8.235c0-.267.036-.457.146-.572.109-.114.291-.114.546.039l1.202.686c.255.152.4.343.51.61.109.267.145.496.145.762v15.327c0 .267-.036.42-.145.572-.11.115-.292.115-.51-.038l-1.202-.724z" fill="#76FF6A"/></svg><svg fill="none" viewBox="0 0 102 24" id="next" xmlns="http://www.w3.org/2000/svg"><path d="M101.061 13.06a1.502 1.502 0 000-2.12l-9.546-9.547a1.5 1.5 0 10-2.122 2.122L97.88 12l-8.486 8.485a1.5 1.5 0 102.122 2.122l9.546-9.546zM0 13.5h100v-3H0v3z" fill="#fff"/></svg><svg fill="none" viewBox="0 0 102 24" id="prev" xmlns="http://www.w3.org/2000/svg"><path d="M.94 10.94a1.5 1.5 0 000 2.12l9.545 9.547a1.5 1.5 0 102.122-2.122L4.12 12l8.486-8.485a1.5 1.5 0 10-2.122-2.122L.94 10.94zM102 10.5H2v3h100v-3z" fill="#fff"/></svg><svg xmlns:svgjs="http://svgjs.com/svgjs" viewBox="0 0 288 288" id="tiktok" xmlns="http://www.w3.org/2000/svg"><svg viewBox="0 0 24 24" width="288" height="288"><path d="M21 2H3a1 1 0 00-1 1v18a1 1 0 001 1h18a1 1 0 001-1V3a1 1 0 00-1-1zm-3.281 8.725a3.602 3.602 0 01-.328.017A3.571 3.571 0 0114.4 9.129v5.493a4.061 4.061 0 11-4.06-4.06c.085 0 .167.008.251.013v2a2.067 2.067 0 10-.251 4.119 2.123 2.123 0 002.16-2.045l.02-9.331h1.914A3.564 3.564 0 0017.719 8.5z" fill="#fff" class="ecolor000 esvgShape"/></svg></svg><svg xmlns:svgjs="http://svgjs.com/svgjs" viewBox="0 0 288 288" id="vk" xmlns="http://www.w3.org/2000/svg"><svg data-name="Layer 1" viewBox="0 0 24 24" width="288" height="288"><path d="M15.073 2H8.937C3.333 2 2 3.333 2 8.927v6.136C2 20.666 3.323 22 8.927 22h6.136C20.666 22 22 20.677 22 15.073V8.937C22 3.333 20.677 2 15.073 2zm3.073 14.27h-1.459c-.552 0-.718-.447-1.708-1.437-.864-.833-1.229-.937-1.448-.937-.302 0-.385.083-.385.5v1.312c0 .355-.115.563-1.042.563a5.692 5.692 0 01-4.448-2.667 11.626 11.626 0 01-2.302-4.833c0-.219.083-.417.5-.417h1.458c.375 0 .51.167.657.552.708 2.084 1.916 3.896 2.406 3.896.188 0 .27-.083.27-.552v-2.146c-.062-.979-.582-1.062-.582-1.416a.36.36 0 01.374-.334h2.292c.313 0 .417.156.417.531v2.896c0 .313.135.417.229.417.188 0 .333-.104.677-.448a11.999 11.999 0 001.792-2.98.628.628 0 01.635-.416h1.459c.437 0 .53.219.437.531a18.205 18.205 0 01-1.958 3.365c-.157.24-.22.365 0 .646.145.219.656.646 1 1.052a6.486 6.486 0 011.229 1.708c.125.406-.084.615-.5.615z" fill="#fff" class="fcolor000 fsvgShape"/></svg></svg><svg fill="none" viewBox="0 0 29 25" id="youtube" xmlns="http://www.w3.org/2000/svg"><path fill-rule="evenodd" clip-rule="evenodd" d="M22.583 4.473a3.039 3.039 0 012.115 2.16c.514 1.917.494 5.913.494 5.913s0 3.976-.494 5.893a3.04 3.04 0 01-2.115 2.16c-1.878.504-9.39.504-9.39.504s-7.493 0-9.391-.525a3.039 3.039 0 01-2.115-2.16c-.495-1.896-.495-5.892-.495-5.892s0-3.976.495-5.893c.276-1.05 1.107-1.897 2.115-2.18 1.878-.504 9.39-.504 9.39-.504s7.513 0 9.39.524zM10.8 8.853l6.247 3.673-6.247 3.673V8.853z" fill="#fff"/></svg></svg>