<?xml version="1.0" encoding="utf-8"?><svg viewBox="0 0 288 288" xmlns="http://www.w3.org/2000/svg" xmlns:xlink="http://www.w3.org/1999/xlink"><style>:root>svg{display:none}:root>svg:target{display:block}</style><svg xmlns:svgjs="http://svgjs.com/svgjs" viewBox="0 0 288 288" id="calendar" xmlns="http://www.w3.org/2000/svg"><svg viewBox="0 0 24 24" width="288" height="288"><path d="M19 4h-1V3c0-.6-.4-1-1-1s-1 .4-1 1v1H8V3c0-.6-.4-1-1-1s-1 .4-1 1v1H5C3.3 4 2 5.3 2 7v1h20V7c0-1.7-1.3-3-3-3zM2 19c0 1.7 1.3 3 3 3h14c1.7 0 3-1.3 3-3v-9H2v9zm15-7c.6 0 1 .4 1 1s-.4 1-1 1-1-.4-1-1 .4-1 1-1zm0 4c.6 0 1 .4 1 1s-.4 1-1 1-1-.4-1-1 .4-1 1-1zm-5-4c.6 0 1 .4 1 1s-.4 1-1 1-1-.4-1-1 .4-1 1-1zm0 4c.6 0 1 .4 1 1s-.4 1-1 1-1-.4-1-1 .4-1 1-1zm-5-4c.6 0 1 .4 1 1s-.4 1-1 1-1-.4-1-1 .4-1 1-1zm0 4c.6 0 1 .4 1 1s-.4 1-1 1-1-.4-1-1 .4-1 1-1z" fill="#fff" class="acolor000 asvgShape"/></svg></svg><svg viewBox="0 0 24 24" id="external-link" xmlns="http://www.w3.org/2000/svg"><path d="M18 10.82a1 1 0 00-1 1V19a1 1 0 01-1 1H5a1 1 0 01-1-1V8a1 1 0 011-1h7.18a1 1 0 000-2H5a3 3 0 00-3 3v11a3 3 0 003 3h11a3 3 0 003-3v-7.18a1 1 0 00-1-1zm3.92-8.2a1 1 0 00-.54-.54A1 1 0 0021 2h-6a1 1 0 000 2h3.59L8.29 14.29a1 1 0 000 1.42 1 1 0 001.42 0L20 5.41V9a1 1 0 002 0V3a1 1 0 00-.08-.38z"/></svg><svg viewBox="0 0 120 120" id="news" xmlns="http://www.w3.org/2000/svg"><defs><linearGradient id="ca" x1="50%" x2="50%" y1="0%" y2="100%"><stop offset="0%" stop-color="#FF5A76"/><stop offset="100%" stop-color="#FF416C"/></linearGradient><filter id="cb" width="120%" height="121.6%" x="-15%" y="-10.8%" filterUnits="objectBoundingBox"><feOffset dx="-4" in="SourceAlpha" result="shadowOffsetOuter1"/><feGaussianBlur in="shadowOffsetOuter1" result="shadowBlurOuter1" stdDeviation="2"/><feColorMatrix in="shadowBlurOuter1" values="0 0 0 0 0 0 0 0 0 0 0 0 0 0 0 0 0 0 0.2 0"/></filter><path id="cc" d="M25 24h76v69a5 5 0 01-5 5H25V24zm-4 74c2 0 4-2 4-4v4h-4z"/></defs><g fill="none" fill-rule="evenodd"><rect width="120" height="120" fill="url(#ca)" rx="28"/><path fill="#FFF" d="M17 32h14v66H21a4 4 0 01-4-4V32z"/><use fill="#000" filter="url(#cb)" xlink:href="#cc"/><use fill="#FFF" xlink:href="#cc"/><path fill="#C8C7CC" d="M35 70h66v4H35a2 2 0 110-4zm0 8h66v4H35a2 2 0 110-4zm0 8h66v4H35a2 2 0 110-4z"/><path fill="#FF5B75" d="M62.42 51.826c.294.293.496.68.559 1.11l.021.007v6.793l-.018.017a1.981 1.981 0 01-2.229 2.229l-.017.018h-6.793l-.007-.021a1.976 1.976 0 01-1.11-.56l-.015.015-19.245-19.245.014-.015a1.976 1.976 0 01-.559-1.11L33 41.057v-6.793l.018-.017a1.981 1.981 0 012.229-2.229l.017-.018h6.793l.007.021c.376.055.718.217.995.453l.018-.02 19.357 19.357-.014.015zm.558-10.556a2.027 2.027 0 01-3.43 1.144l-.022.007-6.947-6.947.007-.022a2.027 2.027 0 011.143-3.43l.008-.022h6.947l.018.018a2.026 2.026 0 012.28 2.28l.018.018v6.947l-.022.007zM33.022 52.73a2.027 2.027 0 013.43-1.144l.022-.007 6.947 6.947-.007.022a2.027 2.027 0 01-1.143 3.43l-.008.022h-6.947l-.018-.018a2.026 2.026 0 01-2.28-2.28L33 59.684v-6.947l.022-.007z"/></g></svg></svg>