<svg width="226" height="25" viewBox="0 0 226 25" fill="none" xmlns="http://www.w3.org/2000/svg">
<path d="M46.44 19.5L46.4 5.5H43.74L38.58 14.2L33.34 5.5H30.66V19.5H33.7V11.28L37.8 18.02H39.26L43.38 11.1L43.4 19.5H46.44ZM56.5416 19.74C60.9416 19.74 64.2016 16.68 64.2016 12.5C64.2016 8.32 60.9416 5.26 56.5416 5.26C52.1216 5.26 48.8816 8.34 48.8816 12.5C48.8816 16.66 52.1216 19.74 56.5416 19.74ZM56.5416 16.98C54.0416 16.98 52.1616 15.16 52.1616 12.5C52.1616 9.84 54.0416 8.02 56.5416 8.02C59.0416 8.02 60.9216 9.84 60.9216 12.5C60.9216 15.16 59.0416 16.98 56.5416 16.98ZM76.2766 5.5V14L69.3166 5.5H66.6366V19.5H69.8366V11L76.8166 19.5H79.4766V5.5H76.2766ZM86.0089 16.9V13.66H92.5089V11.14H86.0089V8.1H93.3689V5.5H82.7889V19.5H93.6289V16.9H86.0089ZM108.23 5.5H105.05L101.31 11.72L97.5702 5.5H94.1302L99.5502 14.5V19.5H102.79V14.54L108.23 5.5ZM112.669 16.9V13.66H119.169V11.14H112.669V8.1H120.029V5.5H109.449V19.5H120.289V16.9H112.669ZM135.29 19.5L130.07 12.26L134.95 5.5H131.45L128.29 10.04L125.07 5.5H121.39L126.31 12.38L121.13 19.5H124.85L128.17 14.64L131.55 19.5H135.29ZM143.708 19.62C145.768 19.62 147.608 18.92 148.848 17.56L147.908 16.62C146.768 17.8 145.368 18.3 143.768 18.3C140.388 18.3 137.848 15.82 137.848 12.5C137.848 9.18 140.388 6.7 143.768 6.7C145.368 6.7 146.768 7.2 147.908 8.36L148.848 7.42C147.608 6.06 145.768 5.38 143.728 5.38C139.508 5.38 136.388 8.4 136.388 12.5C136.388 16.6 139.508 19.62 143.708 19.62ZM162.243 5.5V11.74H153.483V5.5H152.003V19.5H153.483V13.04H162.243V19.5H163.703V5.5H162.243ZM178.732 19.5H180.292L173.892 5.5H172.432L166.032 19.5H167.572L169.252 15.76H177.052L178.732 19.5ZM169.792 14.56L173.152 7.04L176.512 14.56H169.792ZM192.848 5.5V16.86L183.828 5.5H182.608V19.5H184.088V8.14L193.088 19.5H194.308V5.5H192.848ZM208.738 17.22C207.658 18 206.418 18.3 205.078 18.3C201.638 18.3 199.098 15.82 199.098 12.5C199.098 9.16 201.638 6.7 205.098 6.7C206.738 6.7 208.138 7.18 209.318 8.34L210.238 7.4C208.998 6.06 207.158 5.38 205.038 5.38C200.758 5.38 197.638 8.4 197.638 12.5C197.638 16.6 200.758 19.62 205.018 19.62C206.958 19.62 208.838 19.02 210.158 17.84V12.5H208.738V17.22ZM215.826 18.22V13.02H223.066V11.76H215.826V6.78H223.946V5.5H214.346V19.5H224.246V18.22H215.826Z" fill="#160647"/>
<path d="M15 4.5L9.5 14.5L0 19.5H15V4.5Z" fill="url(#paint0_linear)"/>
<defs>
<linearGradient id="paint0_linear" x1="11.1548" y1="9.42507" x2="5.25648" y2="16.6023" gradientUnits="userSpaceOnUse">
<stop stop-color="#562EC2"/>
<stop offset="1" stop-color="#A07EFE"/>
</linearGradient>
</defs>
</svg>
