<svg width="22" height="11" viewBox="0 0 22 11" fill="none" xmlns="http://www.w3.org/2000/svg">
<path d="M3.40234 5.75474V8.62026C3.40234 9.2393 3.47005 9.62379 3.60547 9.77372C3.78925 9.98651 4.06734 10.0929 4.43973 10.0929H4.81696V10.3613H0.602121V10.0929H0.972098C1.38802 10.0929 1.68545 9.9575 1.8644 9.68666C1.96112 9.53674 2.00949 9.18127 2.00949 8.62026V2.26535C2.00949 1.6463 1.9442 1.26181 1.81362 1.11189C1.625 0.899089 1.34449 0.792691 0.972098 0.792691H0.602121V0.524275H4.20759C5.0878 0.524275 5.78181 0.616165 6.28962 0.799945C6.79743 0.978889 7.22545 1.28358 7.57366 1.71401C7.92187 2.14444 8.09598 2.65467 8.09598 3.2447C8.09598 4.04753 7.82998 4.70043 7.29799 5.2034C6.77083 5.70638 6.02362 5.95787 5.05636 5.95787C4.81938 5.95787 4.56306 5.94094 4.28739 5.90709C4.01172 5.87323 3.7167 5.82245 3.40234 5.75474ZM3.40234 5.34124C3.65867 5.3896 3.88597 5.42587 4.08426 5.45006C4.28255 5.47424 4.45182 5.48633 4.59208 5.48633C5.09505 5.48633 5.5279 5.29288 5.89062 4.90597C6.25818 4.51423 6.44196 4.00884 6.44196 3.38979C6.44196 2.96419 6.35491 2.57003 6.1808 2.20731C6.0067 1.83975 5.76004 1.5665 5.44085 1.38756C5.12165 1.20378 4.75893 1.11189 4.35268 1.11189C4.10603 1.11189 3.78925 1.15783 3.40234 1.24972V5.34124ZM14.9277 10.3613L11.1263 2.08399V8.65653C11.1263 9.26107 11.1916 9.6383 11.3222 9.78823C11.5011 9.99135 11.7841 10.0929 12.171 10.0929H12.5192V10.3613H9.09507V10.0929H9.44328C9.8592 10.0929 10.1542 9.96717 10.3283 9.71568C10.4347 9.56092 10.4879 9.20787 10.4879 8.65653V2.22907C10.4879 1.79381 10.4396 1.47945 10.3428 1.28599C10.2751 1.14574 10.1494 1.02967 9.9656 0.93778C9.78666 0.841054 9.49648 0.792691 9.09507 0.792691V0.524275H11.8808L15.45 8.22126L18.9611 0.524275H21.7469V0.792691H21.4059C20.9851 0.792691 20.6877 0.918435 20.5136 1.16992C20.4072 1.32468 20.354 1.67774 20.354 2.22907V8.65653C20.354 9.26107 20.4217 9.6383 20.5571 9.78823C20.7361 9.99135 21.019 10.0929 21.4059 10.0929H21.7469V10.3613H17.5683V10.0929H17.9165C18.3373 10.0929 18.6323 9.96717 18.8015 9.71568C18.9079 9.56092 18.9611 9.20787 18.9611 8.65653V2.08399L15.1671 10.3613H14.9277Z" fill="#DA251C"/>
</svg>
