<svg width="54" height="54" fill="none" xmlns="http://www.w3.org/2000/svg"><circle opacity=".1" cx="26.786" cy="27.075" r="26.286" fill="#FFBB36"/><path d="M28.138 27.414h-2.539v3.188h2.539c.879 0 1.594-.715 1.594-1.594a1.58 1.58 0 00-.469-1.125 1.582 1.582 0 00-1.125-.47zm.907-2.602c0-.336-.132-.653-.372-.893a1.254 1.254 0 00-.892-.371h-2.182v2.527h2.202a1.265 1.265 0 001.244-1.263z" fill="#FFBB36"/><path d="M26.784 19.396c-4.234 0-7.678 3.445-7.678 7.679 0 4.233 3.444 7.678 7.678 7.678s7.679-3.445 7.679-7.678c0-4.234-3.445-7.679-7.679-7.679zm1.354 12.546h-.684v1.293h-1.34v-1.293h-2.948v-1.34h1.094v-7.055h-1.094v-1.34h2.949v-1.293h1.339v1.294h.327c.693 0 1.346.27 1.84.764.492.492.763 1.146.763 1.839 0 .664-.25 1.27-.66 1.73.173.113.337.244.487.394.555.556.86 1.292.86 2.073a2.937 2.937 0 01-2.933 2.934z" fill="#FFBB36"/><path d="M34.866 18.994a11.354 11.354 0 00-8.081-3.348 11.354 11.354 0 00-8.082 3.348 11.354 11.354 0 00-3.347 8.08c0 3.053 1.189 5.923 3.347 8.082a11.354 11.354 0 008.082 3.347c3.052 0 5.922-1.188 8.08-3.347a11.354 11.354 0 003.348-8.081c0-3.053-1.189-5.923-3.347-8.081zm-8.081 17.099c-4.973 0-9.018-4.046-9.018-9.018 0-4.973 4.045-9.018 9.018-9.018 4.972 0 9.017 4.045 9.017 9.018 0 4.972-4.045 9.018-9.017 9.018z" fill="#FFBB36"/></svg>