<svg width="226" height="25" fill="none" xmlns="http://www.w3.org/2000/svg"><path d="M46.44 19.5l-.04-14h-2.66l-5.16 8.7-5.24-8.7h-2.68v14h3.04v-8.22l4.1 6.74h1.46l4.12-6.92.02 8.4h3.04zm10.102.24c4.4 0 7.66-3.06 7.66-7.24s-3.26-7.24-7.66-7.24c-4.42 0-7.66 3.08-7.66 7.24s3.24 7.24 7.66 7.24zm0-2.76c-2.5 0-4.38-1.82-4.38-4.48s1.88-4.48 4.38-4.48 4.38 1.82 4.38 4.48-1.88 4.48-4.38 4.48zM76.277 5.5V14l-6.96-8.5h-2.68v14h3.2V11l6.98 8.5h2.66v-14h-3.2zm9.732 11.4v-3.24h6.5v-2.52h-6.5V8.1h7.36V5.5h-10.58v14h10.84v-2.6h-7.62zM108.23 5.5h-3.18l-3.74 6.22-3.74-6.22h-3.44l5.42 9v5h3.24v-4.96l5.44-9.04zm4.439 11.4v-3.24h6.5v-2.52h-6.5V8.1h7.36V5.5h-10.58v14h10.84v-2.6h-7.62zm22.621 2.6l-5.22-7.24 4.88-6.76h-3.5l-3.16 4.54-3.22-4.54h-3.68l4.92 6.88-5.18 7.12h3.72l3.32-4.86 3.38 4.86h3.74zm8.418.12c2.06 0 3.9-.7 5.14-2.06l-.94-.94c-1.14 1.18-2.54 1.68-4.14 1.68-3.38 0-5.92-2.48-5.92-5.8s2.54-5.8 5.92-5.8c1.6 0 3 .5 4.14 1.66l.94-.94c-1.24-1.36-3.08-2.04-5.12-2.04-4.22 0-7.34 3.02-7.34 7.12s3.12 7.12 7.32 7.12zM162.243 5.5v6.24h-8.76V5.5h-1.48v14h1.48v-6.46h8.76v6.46h1.46v-14h-1.46zm16.489 14h1.56l-6.4-14h-1.46l-6.4 14h1.54l1.68-3.74h7.8l1.68 3.74zm-8.94-4.94l3.36-7.52 3.36 7.52h-6.72zm23.056-9.06v11.36l-9.02-11.36h-1.22v14h1.48V8.14l9 11.36h1.22v-14h-1.46zm15.89 11.72c-1.08.78-2.32 1.08-3.66 1.08-3.44 0-5.98-2.48-5.98-5.8 0-3.34 2.54-5.8 6-5.8 1.64 0 3.04.48 4.22 1.64l.92-.94c-1.24-1.34-3.08-2.02-5.2-2.02-4.28 0-7.4 3.02-7.4 7.12s3.12 7.12 7.38 7.12c1.94 0 3.82-.6 5.14-1.78V12.5h-1.42v4.72zm7.088 1v-5.2h7.24v-1.26h-7.24V6.78h8.12V5.5h-9.6v14h9.9v-1.28h-8.42z" fill="#160647"/><path d="M15 4.5l-5.5 10-9.5 5h15v-15z" fill="url(#paint0_linear)"/><defs><linearGradient id="paint0_linear" x1="11.155" y1="9.425" x2="5.256" y2="16.602" gradientUnits="userSpaceOnUse"><stop stop-color="#562EC2"/><stop offset="1" stop-color="#A07EFE"/></linearGradient></defs></svg>