<svg width="18" height="21" viewBox="0 0 18 21" fill="none" xmlns="http://www.w3.org/2000/svg">
<path d="M15.1018 1.76939C14.1427 0.682958 12.407 0.217529 10.1865 0.217529H3.7425C3.28865 0.217529 2.90293 0.545386 2.83093 0.988958L0.147687 17.8717C0.0949722 18.2047 0.354687 18.5055 0.694115 18.5055H4.67212L5.67111 12.2184L5.64026 12.4164C5.71097 11.9728 6.0954 11.645 6.54926 11.645H8.43926C12.1537 11.645 15.0607 10.1484 15.9105 5.81939C15.9363 5.69081 15.9761 5.44396 15.9761 5.44396C16.2178 3.84196 15.9748 2.75553 15.1018 1.76939Z" fill="#03A9F4"/>
<path d="M16.9838 6.26526C16.0606 10.5274 13.115 12.7825 8.44018 12.7825H6.74561L5.48047 20.79H8.22933C8.62661 20.79 8.96475 20.5032 9.02647 20.1137L9.05861 19.944L9.69118 15.9698L9.73233 15.7512C9.79404 15.3617 10.1322 15.075 10.5282 15.075H11.0309C14.2799 15.075 16.823 13.7661 17.5662 9.97968C17.8645 8.45997 17.7205 7.18583 16.9838 6.26526Z" fill="#03A9F4"/>
</svg>
