<svg baseProfile="basic" xmlns="http://www.w3.org/2000/svg" width="90" height="90"><path d="M38.789 51.211l10.876 10.876a3.122 3.122 0 003.684.543l13.034-6.997a3.12 3.12 0 013.07.066L88.47 66.984a3.113 3.113 0 011.268 3.933c-1.625 3.698-4.583 10.476-5.758 13.473-.247.631-.615 1.209-1.127 1.652-12.674 10.986-37.89-2.4-57.191-21.701C6.358 45.039-7.028 19.823 3.958 7.149c.444-.512 1.022-.88 1.652-1.127C8.606 4.847 15.385 1.889 19.083.264a3.113 3.113 0 013.933 1.268l11.285 19.017c.558.941.583 2.106.066 3.07L27.37 36.651a3.122 3.122 0 00.543 3.684l10.876 10.876z"/></svg>