<?xml version="1.0" encoding="utf-8"?><svg viewBox="0 0 100 100" xmlns="http://www.w3.org/2000/svg" xmlns:xlink="http://www.w3.org/1999/xlink"><style>:root>svg{display:none}:root>svg:target{display:block}</style><svg data-name="Layer 1" viewBox="0 0 100 100" id="facebook" xmlns="http://www.w3.org/2000/svg"><path d="M50.8 3.57a45.75 45.75 0 1045.74 45.75A45.8 45.8 0 0050.8 3.57zm12.69 27.14a.69.69 0 01-.69.69h-5.5a2.45 2.45 0 00-2.45 2.44v5.76h7.83a.69.69 0 01.68.75l-.68 8.12a.69.69 0 01-.69.63h-7.14v26.95a.69.69 0 01-.69.69h-9.85a.69.69 0 01-.69-.69V49.1H38.7a.69.69 0 01-.69-.69v-8.12a.69.69 0 01.69-.69h4.92v-7.82a9.88 9.88 0 019.88-9.88h9.3a.69.69 0 01.69.69z"/></svg><svg viewBox="0 0 32 32" id="instagram" xmlns="http://www.w3.org/2000/svg"><path d="M20.842 16.139c0 2.584-2.163 4.68-4.831 4.68-2.666 0-4.83-2.097-4.83-4.68 0-.464.071-.911.201-1.334l-1.211-.263v6.801c0 .341.146.486.486.486h10.687c.34 0 .486-.145.486-.486v-6.801l-1.188.263c.129.424.2.87.2 1.334z"/><ellipse cx="16.011" cy="15.971" rx="3.121" ry="3.025"/><path d="M16 0C7.164 0 0 7.163 0 16s7.164 16 16 16 16-7.164 16-16S24.836 0 16 0zm7.773 21.829a1.913 1.913 0 01-1.943 1.943H10.171a1.913 1.913 0 01-1.943-1.943V10.17c0-1.097.846-1.943 1.943-1.943H21.83c1.097 0 1.943.846 1.943 1.943v11.659z"/><path d="M21.344 10.17H19.4a.485.485 0 00-.486.486v1.943c0 .269.217.486.486.486h1.943a.485.485 0 00.486-.486v-1.943a.486.486 0 00-.485-.486z"/></svg><svg viewBox="0 0 20 20" id="vk" xmlns="http://www.w3.org/2000/svg"><path d="M10 .4C4.698.4.4 4.698.4 10s4.298 9.6 9.6 9.6 9.6-4.298 9.6-9.6S15.302.4 10 .4zm3.692 10.831s.849.838 1.058 1.227c.006.008.009.016.011.02.085.143.105.254.063.337-.07.138-.31.206-.392.212h-1.5c-.104 0-.322-.027-.586-.209-.203-.142-.403-.375-.598-.602-.291-.338-.543-.63-.797-.63a.305.305 0 00-.095.015c-.192.062-.438.336-.438 1.066 0 .228-.18.359-.307.359h-.687c-.234 0-1.453-.082-2.533-1.221-1.322-1.395-2.512-4.193-2.522-4.219-.075-.181.08-.278.249-.278h1.515c.202 0 .268.123.314.232.054.127.252.632.577 1.2.527.926.85 1.302 1.109 1.302a.3.3 0 00.139-.036c.338-.188.275-1.393.26-1.643 0-.047-.001-.539-.174-.775-.124-.171-.335-.236-.463-.26a.55.55 0 01.199-.169c.232-.116.65-.133 1.065-.133h.231c.45.006.566.035.729.076.33.079.337.292.308 1.021-.009.207-.018.441-.018.717 0 .06-.003.124-.003.192-.01.371-.022.792.24.965a.216.216 0 00.114.033c.091 0 .365 0 1.107-1.273a9.718 9.718 0 00.595-1.274c.015-.026.059-.106.111-.137a.266.266 0 01.124-.029h1.781c.194 0 .327.029.352.104.044.119-.008.482-.821 1.583l-.363.479c-.737.966-.737 1.015.046 1.748z"/></svg></svg>