<svg width="54" height="54" viewBox="0 0 54 54" fill="none" xmlns="http://www.w3.org/2000/svg">
<circle opacity="0.1" cx="26.7857" cy="27.0748" r="26.2857" fill="#FFBB36"/>
<path d="M28.138 27.4138L25.599 27.4144V30.6024H28.138C29.0169 30.6024 29.732 29.8872 29.732 29.0081C29.7321 28.5847 29.5656 28.185 29.2633 27.8827C28.961 27.5803 28.5613 27.4138 28.138 27.4138Z" fill="#FFBB36"/>
<path d="M29.0446 24.8116C29.0446 24.4761 28.9126 24.1593 28.6728 23.9195C28.433 23.6797 28.1162 23.5477 27.7808 23.5477H25.599V26.0751H27.8014C28.4887 26.0639 29.0446 25.5017 29.0446 24.8116Z" fill="#FFBB36"/>
<path d="M26.7842 19.396C22.5502 19.396 19.1057 22.8406 19.1057 27.0746C19.1057 31.3085 22.5502 34.7531 26.7842 34.7531C31.0182 34.7531 34.4628 31.3085 34.4628 27.0746C34.4628 22.8406 31.0182 19.396 26.7842 19.396ZM28.1383 31.9415H27.4539V33.2353H26.1146V31.9415H23.1664V30.6022H24.2601V23.5469H23.1664V22.2076H26.1146V20.9139H27.4539V22.2076H27.7811C28.4743 22.2076 29.1274 22.4789 29.6202 22.9717C30.1129 23.4645 30.3843 24.1176 30.3842 24.8109C30.3842 25.4749 30.134 26.0813 29.7233 26.5417C29.897 26.6542 30.0607 26.7853 30.2107 26.9354C30.766 27.4908 31.0717 28.2268 31.0716 29.008C31.0717 30.6255 29.7558 31.9415 28.1383 31.9415Z" fill="#FFBB36"/>
<path d="M34.8658 18.9936C32.7072 16.835 29.8372 15.6462 26.7845 15.6462C23.7319 15.6462 20.8619 16.835 18.7033 18.9936C16.5448 21.1522 15.356 24.0221 15.356 27.0748C15.356 30.1275 16.5448 32.9974 18.7033 35.1561C20.8619 37.3146 23.7319 38.5034 26.7845 38.5034C29.8372 38.5034 32.7072 37.3146 34.8658 35.1561C37.0243 32.9974 38.2131 30.1275 38.2131 27.0748C38.2131 24.0221 37.0243 21.1522 34.8658 18.9936ZM26.7845 36.0927C21.8121 36.0927 17.7667 32.0473 17.7667 27.0748C17.7667 22.1024 21.8121 18.057 26.7845 18.057C31.757 18.057 35.8024 22.1024 35.8024 27.0748C35.8024 32.0473 31.757 36.0927 26.7845 36.0927Z" fill="#FFBB36"/>
</svg>
