<svg width="24" height="24" viewBox="0 0 24 24" fill="none" xmlns="http://www.w3.org/2000/svg">
<path d="M13.138 12.4138L10.599 12.4144V15.6024H13.138C14.0169 15.6024 14.732 14.8872 14.732 14.0081C14.7321 13.5847 14.5656 13.185 14.2633 12.8827C13.961 12.5803 13.5613 12.4138 13.138 12.4138Z" fill="#FFBB36"/>
<path d="M14.0446 9.81161C14.0446 9.47608 13.9126 9.15929 13.6728 8.91952C13.433 8.67974 13.1162 8.54768 12.7808 8.54773H10.599V11.0751H12.8014C13.4887 11.0639 14.0446 10.5017 14.0446 9.81161Z" fill="#FFBB36"/>
<path d="M11.7842 4.396C7.55025 4.396 4.10565 7.84059 4.10565 12.0746C4.10565 16.3085 7.55025 19.7531 11.7842 19.7531C16.0182 19.7531 19.4628 16.3085 19.4628 12.0746C19.4628 7.84059 16.0182 4.396 11.7842 4.396ZM13.1383 16.9415H12.4539V18.2353H11.1146V16.9415H8.16641V15.6022H9.26007V8.54693H8.16641V7.20765H11.1146V5.91385H12.4539V7.20765H12.7811C13.4743 7.2076 14.1274 7.47894 14.6202 7.97171C15.1129 8.46448 15.3843 9.11765 15.3842 9.81086C15.3842 10.4749 15.134 11.0813 14.7233 11.5417C14.897 11.6542 15.0607 11.7853 15.2107 11.9354C15.766 12.4908 16.0717 13.2268 16.0716 14.008C16.0717 15.6255 14.7558 16.9415 13.1383 16.9415Z" fill="#FFBB36"/>
<path d="M19.8658 3.99356C17.7072 1.83504 14.8372 0.64624 11.7845 0.64624C8.73185 0.64624 5.86189 1.83504 3.70328 3.99356C1.54475 6.15218 0.355957 9.02213 0.355957 12.0748C0.355957 15.1275 1.54475 17.9974 3.70328 20.1561C5.86189 22.3146 8.73185 23.5034 11.7845 23.5034C14.8372 23.5034 17.7072 22.3146 19.8658 20.1561C22.0243 17.9974 23.2131 15.1275 23.2131 12.0748C23.2131 9.02213 22.0243 6.15218 19.8658 3.99356V3.99356ZM11.7845 21.0927C6.81207 21.0927 2.76667 17.0473 2.76667 12.0748C2.76667 7.10236 6.81207 3.05695 11.7845 3.05695C16.757 3.05695 20.8024 7.10236 20.8024 12.0748C20.8024 17.0473 16.757 21.0927 11.7845 21.0927V21.0927Z" fill="#FFBB36"/>
</svg>
