<svg width="27" height="27" viewBox="0 0 27 27" fill="none" xmlns="http://www.w3.org/2000/svg">
<g clip-path="url(#clip0)">
<path d="M13.5068 26.8807C20.7422 26.8807 26.6077 21.0152 26.6077 13.7798C26.6077 6.54434 20.7422 0.678848 13.5068 0.678848C6.27134 0.678848 0.405853 6.54434 0.405853 13.7798C0.405853 21.0152 6.27134 26.8807 13.5068 26.8807Z" fill="#3B5998"/>
<path d="M16.798 14.2942H14.4603V22.8584H10.9185V14.2942H9.23398V11.2843H10.9185V9.33664C10.9185 7.94383 11.5801 5.76283 14.4918 5.76283L17.1154 5.77381V8.69535H15.2118C14.8996 8.69535 14.4605 8.85135 14.4605 9.51577V11.2871H17.1074L16.798 14.2942Z" fill="white"/>
</g>
<defs>
<clipPath id="clip0">
<rect width="26.2019" height="26.2019" fill="white" transform="translate(0.402344 0.679688)"/>
</clipPath>
</defs>
</svg>
