<svg width="28" height="28" viewBox="0 0 28 28" fill="none" xmlns="http://www.w3.org/2000/svg">
<g clip-path="url(#clip0)">
<path d="M2.26834 2.29833C0.111264 4.5389 0.552744 6.91901 0.552744 14.1497C0.552744 20.1543 -0.494915 26.1738 4.98814 27.5908C6.70031 28.0312 21.8708 28.0312 23.5807 27.5886C25.8635 26.9995 27.721 25.1478 27.9749 21.9191C28.0103 21.4684 28.0103 6.83895 27.9737 6.37917C27.7038 2.93996 25.5868 0.957872 22.7972 0.556422C22.1579 0.463779 22.0298 0.43633 18.7495 0.430611C7.11434 0.43633 4.56382 -0.0817814 2.26834 2.29833Z" fill="url(#paint0_linear)"/>
<path d="M14.272 4.02345C10.1191 4.02345 6.17552 3.65403 4.66923 7.51984C4.04703 9.1165 4.13739 11.1901 4.13739 14.1592C4.13739 16.7646 4.0539 19.2134 4.66923 20.7974C6.17209 24.6655 10.1477 24.295 14.2697 24.295C18.2465 24.295 22.3468 24.709 23.8714 20.7974C24.4947 19.1848 24.4032 17.1421 24.4032 14.1592C24.4032 10.1996 24.6216 7.64337 22.7013 5.72418C20.757 3.77984 18.1275 4.02345 14.2674 4.02345H14.272ZM13.3639 5.84999C22.0265 5.83627 23.1291 4.87325 22.5206 18.2515C22.3044 22.9831 18.7017 22.4639 14.2732 22.4639C6.1984 22.4639 5.96622 22.2328 5.96622 14.1546C5.96622 5.98267 6.60671 5.85457 13.3639 5.84771V5.84999ZM19.6819 7.53243C19.0105 7.53243 18.4661 8.07684 18.4661 8.74821C18.4661 9.41959 19.0105 9.964 19.6819 9.964C20.3532 9.964 20.8977 9.41959 20.8977 8.74821C20.8977 8.07684 20.3532 7.53243 19.6819 7.53243ZM14.272 8.95409C11.3978 8.95409 9.06802 11.285 9.06802 14.1592C9.06802 17.0334 11.3978 19.3632 14.272 19.3632C17.1462 19.3632 19.4748 17.0334 19.4748 14.1592C19.4748 11.285 17.1462 8.95409 14.272 8.95409ZM14.272 10.7806C18.7383 10.7806 18.744 17.5378 14.272 17.5378C9.80687 17.5378 9.80001 10.7806 14.272 10.7806Z" fill="white"/>
</g>
<defs>
<linearGradient id="paint0_linear" x1="2.32098" y1="26.127" x2="27.8325" y2="4.04708" gradientUnits="userSpaceOnUse">
<stop stop-color="#FFDD55"/>
<stop offset="0.5" stop-color="#FF543E"/>
<stop offset="1" stop-color="#C837AB"/>
</linearGradient>
<clipPath id="clip0">
<rect width="27.4496" height="27.4496" fill="white" transform="translate(0.550781 0.431641)"/>
</clipPath>
</defs>
</svg>
