<svg width="54" height="53" viewBox="0 0 54 53" fill="none" xmlns="http://www.w3.org/2000/svg">
<path d="M33.1018 18.7694C32.1427 17.683 30.407 17.2175 28.1865 17.2175H21.7425C21.2886 17.2175 20.9029 17.5454 20.8309 17.989L18.1477 34.8717C18.095 35.2047 18.3547 35.5055 18.6941 35.5055H22.6721L23.6711 29.2184L23.6403 29.4164C23.711 28.9728 24.0954 28.645 24.5493 28.645H26.4393C30.1537 28.645 33.0607 27.1484 33.9105 22.8194C33.9363 22.6908 33.9761 22.444 33.9761 22.444C34.2178 20.842 33.9748 19.7555 33.1018 18.7694Z" fill="#03A9F4"/>
<path d="M34.9838 23.2653C34.0606 27.5274 31.115 29.7825 26.4402 29.7825H24.7456L23.4805 37.79H26.2293C26.6266 37.79 26.9648 37.5032 27.0265 37.1137L27.0586 36.944L27.6912 32.9698L27.7323 32.7512C27.794 32.3617 28.1322 32.075 28.5282 32.075H29.0309C32.2799 32.075 34.823 30.7661 35.5662 26.9797C35.8645 25.46 35.7205 24.1858 34.9838 23.2653Z" fill="#03A9F4"/>
<circle opacity="0.1" cx="26.9263" cy="26.3599" r="26.2857" fill="#03A9F4"/>
</svg>
