<svg width="54" height="53" viewBox="0 0 54 53" fill="none" xmlns="http://www.w3.org/2000/svg">
<circle opacity="0.1" cx="26.7857" cy="26.3601" r="26.2857" fill="#DA251C"/>
<path d="M18.4023 27.7547V30.6203C18.4023 31.2393 18.4701 31.6238 18.6055 31.7737C18.7892 31.9865 19.0673 32.0929 19.4397 32.0929H19.817V32.3613H15.6021V32.0929H15.9721C16.388 32.0929 16.6855 31.9575 16.8644 31.6867C16.9611 31.5367 17.0095 31.1813 17.0095 30.6203V24.2653C17.0095 23.6463 16.9442 23.2618 16.8136 23.1119C16.625 22.8991 16.3445 22.7927 15.9721 22.7927H15.6021V22.5243H19.2076C20.0878 22.5243 20.7818 22.6162 21.2896 22.7999C21.7974 22.9789 22.2254 23.2836 22.5737 23.714C22.9219 24.1444 23.096 24.6547 23.096 25.2447C23.096 26.0475 22.83 26.7004 22.298 27.2034C21.7708 27.7064 21.0236 27.9579 20.0564 27.9579C19.8194 27.9579 19.5631 27.9409 19.2874 27.9071C19.0117 27.8732 18.7167 27.8225 18.4023 27.7547ZM18.4023 27.3412C18.6587 27.3896 18.886 27.4259 19.0843 27.4501C19.2826 27.4742 19.4518 27.4863 19.5921 27.4863C20.0951 27.4863 20.5279 27.2929 20.8906 26.906C21.2582 26.5142 21.442 26.0088 21.442 25.3898C21.442 24.9642 21.3549 24.57 21.1808 24.2073C21.0067 23.8398 20.76 23.5665 20.4408 23.3876C20.1217 23.2038 19.7589 23.1119 19.3527 23.1119C19.106 23.1119 18.7892 23.1578 18.4023 23.2497V27.3412ZM29.9277 32.3613L26.1263 24.084V30.6565C26.1263 31.2611 26.1916 31.6383 26.3222 31.7882C26.5011 31.9914 26.7841 32.0929 27.171 32.0929H27.5192V32.3613H24.0951V32.0929H24.4433C24.8592 32.0929 25.1542 31.9672 25.3283 31.7157C25.4347 31.5609 25.4879 31.2079 25.4879 30.6565V24.2291C25.4879 23.7938 25.4396 23.4794 25.3428 23.286C25.2751 23.1457 25.1494 23.0297 24.9656 22.9378C24.7867 22.8411 24.4965 22.7927 24.0951 22.7927V22.5243H26.8808L30.45 30.2213L33.9611 22.5243H36.7469V22.7927H36.4059C35.9851 22.7927 35.6877 22.9184 35.5136 23.1699C35.4072 23.3247 35.354 23.6777 35.354 24.2291V30.6565C35.354 31.2611 35.4217 31.6383 35.5571 31.7882C35.7361 31.9914 36.019 32.0929 36.4059 32.0929H36.7469V32.3613H32.5683V32.0929H32.9165C33.3373 32.0929 33.6323 31.9672 33.8015 31.7157C33.9079 31.5609 33.9611 31.2079 33.9611 30.6565V24.084L30.1671 32.3613H29.9277Z" fill="#DA251C"/>
</svg>
