<?xml version="1.0" encoding="utf-8"?><svg viewBox="0 0 512 512" xmlns="http://www.w3.org/2000/svg" xmlns:xlink="http://www.w3.org/1999/xlink"><style>:root>svg{display:none}:root>svg:target{display:block}</style><svg viewBox="0 0 24 24" id="call" xmlns="http://www.w3.org/2000/svg"><path d="M19.44 13c-.22 0-.45-.07-.67-.12a9.44 9.44 0 01-1.31-.39 2 2 0 00-2.48 1l-.22.45a12.18 12.18 0 01-2.66-2 12.18 12.18 0 01-2-2.66l.42-.28a2 2 0 001-2.48 10.33 10.33 0 01-.39-1.31c-.05-.22-.09-.45-.12-.68a3 3 0 00-3-2.49h-3a3 3 0 00-3 3.41 19 19 0 0016.52 16.46h.38a3 3 0 002-.76 3 3 0 001-2.25v-3a3 3 0 00-2.47-2.9zm.5 6a1 1 0 01-.34.75 1.05 1.05 0 01-.82.25A17 17 0 014.07 5.22a1.09 1.09 0 01.25-.82 1 1 0 01.75-.34h3a1 1 0 011 .79q.06.41.15.81a11.12 11.12 0 00.46 1.55l-1.4.65a1 1 0 00-.49 1.33 14.49 14.49 0 007 7 1 1 0 00.76 0 1 1 0 00.57-.52l.62-1.4a13.69 13.69 0 001.58.46q.4.09.81.15a1 1 0 01.79 1z"/></svg><svg data-name="Layer 1" viewBox="0 0 24 24" id="facebook" xmlns="http://www.w3.org/2000/svg"><path d="M15.12 5.32H17V2.14A26.11 26.11 0 0014.26 2c-2.72 0-4.58 1.66-4.58 4.7v2.62H6.61v3.56h3.07V22h3.68v-9.12h3.06l.46-3.56h-3.52V7.05c0-1.05.28-1.73 1.76-1.73z"/></svg><svg viewBox="0 0 512 512" id="google" xmlns="http://www.w3.org/2000/svg"><path d="M242.1 275.6l-18.2-13.7-.1-.1c-5.8-4.6-10-8.3-10-14.7 0-7 5-11.8 10.9-17.4l.5-.4c20-15.2 44.7-34.3 44.7-74.6 0-26.9-11.9-44.7-23.3-57.7h13L320 64H186.5c-25.3 0-62.7 3.2-94.6 28.6l-.1.3C70 110.9 57 137.4 57 163.5c0 21.2 8.7 42.2 23.9 57.4 21.4 21.6 48.3 26.1 67.1 26.1 1.5 0 3 0 4.5-.1-.8 3-1.2 6.3-1.2 10.3 0 10.9 3.6 19.3 8.1 26.2-24 1.9-58.1 6.5-84.9 22.3-39.4 22.7-42.5 56-42.5 65.6 0 38.2 35.7 76.8 115.5 76.8 91.6 0 139.5-49.8 139.5-99 0-37.1-22.8-55.6-44.9-73.5zM116.7 139.9c0-13.4 3-23.5 9.3-30.9 6.5-7.9 18.2-13.1 29-13.1 19.9 0 32.9 15 40.4 27.6 9.2 15.5 14.9 36.1 14.9 53.6 0 4.9 0 20-10.2 29.8-7 6.7-18.7 11.4-28.6 11.4-20.5 0-33.5-14.7-40.7-27-10.4-17.8-14.1-38.2-14.1-51.4zM237.8 368c0 27.4-25.2 44.5-65.8 44.5-48.1 0-80.3-20.6-80.3-51.3 0-26.1 21.5-36.8 37.8-42.5 18.9-6.1 44.3-7.3 50.1-7.3 3.9 0 6.1 0 8.7.2 36.6 25.2 49.5 36.1 49.5 56.4z"/><path d="M402 142V64h-34v78h-80v34h80v81h34v-81h78v-34z"/></svg><svg baseProfile="tiny" version="1.2" viewBox="0 0 24 24" id="instagram" xmlns="http://www.w3.org/2000/svg"><path d="M18 3H6C4.3 3 3 4.3 3 6v12c0 1.7 1.3 3 3 3h12c1.7 0 3-1.3 3-3V6c0-1.7-1.3-3-3-3zm-6 6c1.7 0 3 1.3 3 3s-1.3 3-3 3-3-1.3-3-3 1.3-3 3-3zm3.8-2c0-.7.6-1.2 1.2-1.2s1.2.6 1.2 1.2-.5 1.2-1.2 1.2-1.2-.5-1.2-1.2zM18 19H6c-.6 0-1-.4-1-1v-6h2c0 2.8 2.2 5 5 5s5-2.2 5-5h2v6c0 .6-.4 1-1 1z"/></svg><svg viewBox="0 0 29 29" id="mail" xmlns="http://www.w3.org/2000/svg"><path d="M2 7.42v14.172l7.086-7.086zM3.408 6l8.971 8.971c1.133 1.133 3.109 1.133 4.242 0L25.592 6H3.408z"/><path d="M18.035 16.385c-.943.944-2.199 1.465-3.535 1.465s-2.592-.521-3.535-1.465l-.465-.465L3.42 23h22.16l-7.08-7.08-.465.465zm1.879-1.879L27 21.592V7.42z"/></svg><svg viewBox="0 0 32 32" id="mobile" xmlns="http://www.w3.org/2000/svg"><path style="line-height:normal;text-indent:0;text-align:start;text-decoration-line:none;text-decoration-style:solid;text-decoration-color:#000;text-transform:none;block-progression:tb;white-space:normal;isolation:auto;mix-blend-mode:normal;solid-color:#000;solid-opacity:1" d="M7.5 1a.5.5 0 00-.5.5v29a.5.5 0 00.5.5h17a.5.5 0 00.5-.5v-29a.5.5 0 00-.5-.5h-17zM8 2h16v28H8V2zm5.396 1a.5.5 0 00.051 1h5.106a.5.5 0 100-1h-5.106a.5.5 0 00-.05 0zM9.5 5a.5.5 0 00-.5.5v20a.5.5 0 00.5.5h13a.5.5 0 00.5-.5v-20a.5.5 0 00-.5-.5h-13zm.5 1h12v19H10V6zm6 21c-.546 0-1 .454-1 1 0 .547.454 1 1 1s1-.453 1-1c0-.546-.454-1-1-1z" color="#000" font-family="sans-serif" font-weight="400" overflow="visible"/></svg><svg data-name="Layer 1" viewBox="0 0 24 24" id="skype" xmlns="http://www.w3.org/2000/svg"><path d="M15.14 11.813a5.076 5.076 0 00-1.292-.593c-.28-.085-.59-.168-.91-.247-.28-.078-.612-.158-1.022-.248a9.315 9.315 0 01-1.436-.424 1.496 1.496 0 01-.616-.447.843.843 0 01-.16-.566.967.967 0 01.205-.597 1.598 1.598 0 01.7-.475A4.012 4.012 0 0112.031 8a3.787 3.787 0 011.106.146 2.083 2.083 0 01.663.322 1.235 1.235 0 01.325.343 1 1 0 101.761-.948 3.147 3.147 0 00-.837-.958 4.006 4.006 0 00-1.319-.669A5.768 5.768 0 0012.032 6a5.963 5.963 0 00-2.145.35A3.552 3.552 0 008.31 7.492a2.977 2.977 0 00-.604 1.797 2.839 2.839 0 00.58 1.792 3.5 3.5 0 001.438 1.072 10.582 10.582 0 001.307.408c.008.003.014.01.022.012.192.058.498.135.94.23.173.038.335.079.497.12.016.004.039.009.054.014l.018.002c.248.064.487.129.706.196a3.023 3.023 0 01.763.344 1.127 1.127 0 01.363.368 1.201 1.201 0 01.118.585 1.152 1.152 0 01-.214.732 1.763 1.763 0 01-.802.585 3.787 3.787 0 01-1.487.252 3.689 3.689 0 01-1.703-.344 1.756 1.756 0 01-.616-.547 1.016 1.016 0 01-.202-.503 1 1 0 00-2 0 2.94 2.94 0 00.556 1.64 3.774 3.774 0 001.342 1.187 5.621 5.621 0 002.623.567 5.708 5.708 0 002.254-.405 3.71 3.71 0 001.665-1.273 3.146 3.146 0 00.584-1.926 3.09 3.09 0 00-.375-1.53 3.165 3.165 0 00-.997-1.053zm7.221 1.878A10.491 10.491 0 0010.31 1.64a6.499 6.499 0 00-8.67 8.67A10.491 10.491 0 0013.69 22.36a6.499 6.499 0 008.67-8.67zM16.5 21a4.506 4.506 0 01-2.17-.558 1.004 1.004 0 00-.677-.106A8.492 8.492 0 013.5 12a8.583 8.583 0 01.164-1.654 1.003 1.003 0 00-.106-.677A4.5 4.5 0 019.67 3.558a1 1 0 00.678.106A8.492 8.492 0 0120.5 12a8.583 8.583 0 01-.164 1.654 1.003 1.003 0 00.106.677A4.499 4.499 0 0116.5 21z"/></svg><svg data-name="Layer 1" viewBox="0 0 24 24" id="telegram" xmlns="http://www.w3.org/2000/svg"><path d="M22.265 2.428a2.048 2.048 0 00-2.078-.324L2.266 9.339a2.043 2.043 0 00.104 3.818l3.625 1.261 2.02 6.682a.998.998 0 00.119.252c.008.012.019.02.027.033a.988.988 0 00.211.215.972.972 0 00.07.05.986.986 0 00.31.136l.013.001.006.003a1.022 1.022 0 00.203.02l.018-.003a.993.993 0 00.301-.052c.023-.008.042-.02.064-.03a.993.993 0 00.205-.114 250.76 250.76 0 01.152-.129l2.702-2.983 4.03 3.122a2.023 2.023 0 001.241.427 2.054 2.054 0 002.008-1.633l3.263-16.017a2.03 2.03 0 00-.693-1.97zM9.37 14.736a.994.994 0 00-.272.506l-.31 1.504-.784-2.593 4.065-2.117zm8.302 5.304l-4.763-3.69a1.001 1.001 0 00-1.353.12l-.866.955.306-1.487 7.083-7.083a1 1 0 00-1.169-1.593L6.745 12.554 3.02 11.191 20.999 4z"/></svg><svg viewBox="0 0 24 24" id="whatsapp" xmlns="http://www.w3.org/2000/svg"><path d="M16.6 14c-.2-.1-1.5-.7-1.7-.8-.2-.1-.4-.1-.6.1-.2.2-.6.8-.8 1-.1.2-.3.2-.5.1-.7-.3-1.4-.7-2-1.2-.5-.5-1-1.1-1.4-1.7-.1-.2 0-.4.1-.5.1-.1.2-.3.4-.4.1-.1.2-.3.2-.4.1-.1.1-.3 0-.4-.1-.1-.6-1.3-.8-1.8-.1-.7-.3-.7-.5-.7h-.5c-.2 0-.5.2-.6.3-.6.6-.9 1.3-.9 2.1.1.9.4 1.8 1 2.6 1.1 1.6 2.5 2.9 4.2 3.7.5.2.9.4 1.4.5.5.2 1 .2 1.6.1.7-.1 1.3-.6 1.7-1.2.2-.4.2-.8.1-1.2l-.4-.2m2.5-9.1C15.2 1 8.9 1 5 4.9c-3.2 3.2-3.8 8.1-1.6 12L2 22l5.3-1.4c1.5.8 3.1 1.2 4.7 1.2 5.5 0 9.9-4.4 9.9-9.9.1-2.6-1-5.1-2.8-7m-2.7 14c-1.3.8-2.8 1.3-4.4 1.3-1.5 0-2.9-.4-4.2-1.1l-.3-.2-3.1.8.8-3-.2-.3c-2.4-4-1.2-9 2.7-11.5S16.6 3.7 19 7.5c2.4 3.9 1.3 9-2.6 11.4"/></svg></svg>